<?xml version="1.0" encoding="UTF-8" standalone="no" ?>
<!DOCTYPE svg PUBLIC "-//W3C//DTD SVG 1.1//EN" "http://www.w3.org/Graphics/SVG/1.1/DTD/svg11.dtd">
<svg xmlns="http://www.w3.org/2000/svg" xmlns:xlink="http://www.w3.org/1999/xlink" version="1.1" width="400" height="400" viewBox="0 0 400 400" xml:space="preserve">
<desc>Created with Fabric.js 3.6.2</desc>
<defs>
</defs>
<g transform="matrix(10 0 0 10 200 200)"  >
<path style="stroke: none; stroke-width: 1; stroke-dasharray: none; stroke-linecap: butt; stroke-dashoffset: 0; stroke-linejoin: miter; stroke-miterlimit: 4; fill: rgb(0,0,0); fill-rule: evenodd; opacity: 1;"  transform=" translate(-12, -11.65)" d="M 8.82929429 20 C 8.41745788 21.1651924 7.30621883 22 6 22 C 4.34314575 22 3 20.6568542 3 19 C 3 17.3431458 4.34314575 16 6 16 C 7.30621883 16 8.41745788 16.8348076 8.82929429 18 L 17.5 18 C 18.8807119 18 20 16.8807119 20 15.5 C 20 14.1192881 18.8807119 13 17.5 13 L 6.5 13 C 4.01471863 13 2 10.9852814 2 8.5 C 2 6.01471863 4.01471863 4 6.5 4 L 9.58578644 4 L 8.29289322 2.70710678 L 9.70710678 1.29289322 L 13.4142136 5 L 9.70710678 8.70710678 L 8.29289322 7.29289322 L 9.58578644 6 L 6.5 6 C 5.11928813 6 4 7.11928813 4 8.5 C 4 9.88071187 5.11928813 11 6.5 11 L 17.5 11 C 19.9852814 11 22 13.0147186 22 15.5 C 22 17.9852814 19.9852814 20 17.5 20 L 8.82929429 20 Z M 6 18 C 5.44771525 18 5 18.4477153 5 19 C 5 19.5522847 5.44771525 20 6 20 C 6.55228475 20 7 19.5522847 7 19 C 7 18.4477153 6.55228475 18 6 18 Z M 18 2 C 19.6568542 2 21 3.34314575 21 5 C 21 6.65685425 19.6568542 8 18 8 C 16.3431458 8 15 6.65685425 15 5 C 15 3.34314575 16.3431458 2 18 2 Z M 18 4 C 17.4477153 4 17 4.44771525 17 5 C 17 5.55228475 17.4477153 6 18 6 C 18.5522847 6 19 5.55228475 19 5 C 19 4.44771525 18.5522847 4 18 4 Z" stroke-linecap="round" />
</g>
</svg>