<?xml version="1.0" encoding="UTF-8" standalone="no" ?>
<!DOCTYPE svg PUBLIC "-//W3C//DTD SVG 1.1//EN" "http://www.w3.org/Graphics/SVG/1.1/DTD/svg11.dtd">
<svg xmlns="http://www.w3.org/2000/svg" xmlns:xlink="http://www.w3.org/1999/xlink" version="1.1" width="400" height="400" viewBox="0 0 400 400" xml:space="preserve">
<desc>Created with Fabric.js 3.6.2</desc>
<defs>
</defs>
<g transform="matrix(0 -4.17 4.17 0 202.08 202.08)" id="Path"  >
<path style="stroke: none; stroke-width: 1; stroke-dasharray: none; stroke-linecap: butt; stroke-dashoffset: 0; stroke-linejoin: miter; stroke-miterlimit: 4; fill: rgb(255,255,255); fill-rule: nonzero; opacity: 1;"  transform=" translate(-24.5, -24.5)" d="M 35 6 C 29.225216 6 25 10.4095324 25 17.5 L 25 32 C 25 35.6196765 23.0754155 38 20 38 L 19.7930794 37.9959746 C 16.9850091 37.8861539 15 35.537804 15 32 L 14.999 19 L 20.5 19 C 20.8993477 19 21.1375434 18.5549273 20.9160251 18.2226499 L 12.9160251 6.2226499 C 12.7181141 5.92578337 12.2818859 5.92578337 12.0839749 6.2226499 L 4.08397485 18.2226499 L 4.04343429 18.2953753 C 3.89730677 18.6162383 4.12917714 19 4.5 19 L 9.999 19 L 10 32 C 10 38.3923721 14.3088325 43 20 43 C 25.8183607 43 30 38.3249536 30 32 L 30 17.5 C 30 13.2703305 31.7923662 11 35 11 C 38.1461887 11 40 13.4554576 40 17.5 L 40 31.5 C 40 31.7761424 40.2238576 32 40.5 32 L 44.5 32 C 44.7761424 32 45 31.7761424 45 31.5 L 45 17.5 C 45 10.2268457 40.6645983 6 35 6 Z M 35.2591547 7.00325773 C 40.2483903 7.12914298 44 10.8987009 44 17.5 L 43.999 31 L 40.999 31 L 41 17.5 C 41 12.9545676 38.7693726 10 35 10 C 31.181318 10 29 12.7630028 29 17.5 L 29 32 C 29 37.7959863 25.2396803 42 20 42 C 14.8766581 42 11 37.8545156 11 32 L 11 18.5 L 10.9919443 18.4101244 C 10.9496084 18.1768752 10.7454599 18 10.5 18 L 5.434 18 L 12.5 7.402 L 19.565 18 L 14.5 18 C 14.2238576 18 14 18.2238576 14 18.5 L 14 32 C 14 36.1492498 16.499326 39 20 39 C 23.6800885 39 26 36.1307367 26 32 L 26 17.5 C 26 10.9524908 29.7872784 7 35 7 L 35.2591547 7.00325773 Z" stroke-linecap="round" />
</g>
<g transform="matrix(4.17 0 0 4.17 260.42 127.08)" id="Oval"  >
<path style="stroke: none; stroke-width: 1; stroke-dasharray: none; stroke-linecap: butt; stroke-dashoffset: 0; stroke-linejoin: miter; stroke-miterlimit: 4; fill: rgb(255,255,255); fill-rule: nonzero; opacity: 1;"  transform=" translate(-38.5, -6.5)" d="M 38.5 2 C 36.0147186 2 34 4.01471863 34 6.5 C 34 8.98528137 36.0147186 11 38.5 11 C 40.9852814 11 43 8.98528137 43 6.5 C 43 4.01471863 40.9852814 2 38.5 2 Z M 38.5 3 C 40.4329966 3 42 4.56700338 42 6.5 C 42 8.43299662 40.4329966 10 38.5 10 C 36.5670034 10 35 8.43299662 35 6.5 C 35 4.56700338 36.5670034 3 38.5 3 Z" stroke-linecap="round" />
</g>
</svg>